<?xml version="1.0" encoding="UTF-8"?>

<svg id="Catogory" xmlns="http://www.w3.org/2000/svg" viewBox="0 0 855.81 855.81">
  <defs>
     <style>
      #button_8 .cls-1 {
        fill: #fff;
        stroke-width: 0px;
        opacity: 1;
        transition: opacity 0.3s ease;
      }

       #button_8 .cls-1:hover {
        fill: #ff0000;
        opacity: 0.5;
      }
    
    </style> 
  </defs>
  <g id="button_8" data-name="button 8">
    <g>
      <g>
        <path class="cls-1" d="M161.06,126.39c-3.85,3.42-7.65,6.9-11.38,10.48-1.21,1.16-1.23,3.1-.04,4.29h0c1.15,1.16,3.01,1.17,4.19.04,3.67-3.52,7.41-6.95,11.2-10.31,1.21-1.07,1.36-2.89.33-4.14h0c-1.08-1.32-3.04-1.48-4.31-.35Z"/>
        <path class="cls-1" d="M188.02,111.95c3.98-3.04,8.01-6.01,12.09-8.89,1.33-.94,1.68-2.76.77-4.11h0c-.94-1.4-2.85-1.77-4.23-.8-4.15,2.93-8.24,5.94-12.28,9.03-1.35,1.03-1.57,2.98-.49,4.29h0c1.03,1.25,2.85,1.46,4.14.47Z"/>
      </g>
      <g>
        <path class="cls-1" d="M152.32,117c-3.88,3.44-7.7,6.94-11.46,10.54-1.22,1.16-1.23,3.11-.04,4.3h0c1.15,1.15,3.01,1.17,4.19.04,3.7-3.54,7.47-6.99,11.29-10.38,1.21-1.07,1.36-2.89.33-4.14h0c-1.08-1.32-3.04-1.48-4.31-.35Z"/>
        <path class="cls-1" d="M179.27,102.52c4.59-3.52,9.24-6.94,13.96-10.25,1.34-.94,1.69-2.76.78-4.12h0c-.93-1.4-2.84-1.76-4.22-.8-4.8,3.37-9.52,6.84-14.18,10.42-1.34,1.03-1.56,2.97-.49,4.28h0c1.03,1.25,2.86,1.46,4.14.47Z"/>
      </g>
      <g>
        <path class="cls-1" d="M144.39,107.32c-4.28,3.78-8.49,7.65-12.63,11.62-1.21,1.16-1.23,3.1-.04,4.29h0c1.16,1.16,3.02,1.17,4.2.04,4.08-3.91,8.23-7.72,12.44-11.45,1.21-1.07,1.36-2.9.34-4.15h0c-1.08-1.31-3.03-1.48-4.31-.35Z"/>
        <path class="cls-1" d="M167.19,92.38h0c1.03,1.25,2.86,1.46,4.15.47,4.83-3.71,9.74-7.33,14.72-10.82,1.34-.94,1.68-2.76.78-4.12h0c-.93-1.4-2.84-1.76-4.22-.8-5.06,3.55-10.04,7.21-14.94,10.98-1.34,1.03-1.56,2.97-.48,4.28Z"/>
      </g>
    </g>
    <g>
      <path class="cls-1" d="M214.95,93.1c16.83-10.74,34.47-20.21,52.87-28.35,1.49-.66,2.19-2.38,1.56-3.88h0c-.64-1.56-2.45-2.29-3.99-1.6-18.68,8.27-36.59,17.87-53.68,28.78-1.42.9-1.81,2.8-.87,4.2h0c.91,1.36,2.73,1.73,4.1.85Z"/>
      <g>
        <path class="cls-1" d="M241.59,49.19c5.46-2.69,10.98-5.27,16.57-7.73,1.49-.66,2.19-2.38,1.57-3.89h0c-.64-1.55-2.44-2.28-3.98-1.61-5.67,2.5-11.28,5.12-16.82,7.85-1.52.75-2.11,2.62-1.31,4.11h0c.76,1.43,2.52,1.98,3.97,1.27Z"/>
        <path class="cls-1" d="M212.32,58.1c-4.95,2.88-9.83,5.85-14.66,8.93-1.42.9-1.81,2.8-.87,4.2h0c.91,1.36,2.73,1.73,4.11.85,4.75-3.03,9.56-5.95,14.43-8.79,1.4-.81,1.9-2.58,1.14-4.01h0c-.8-1.49-2.69-2.03-4.15-1.18Z"/>
      </g>
      <g>
        <path class="cls-1" d="M247.5,60.22c5.23-2.57,10.51-5.04,15.87-7.39,1.5-.66,2.2-2.38,1.57-3.89h0c-.64-1.55-2.44-2.28-3.98-1.61-5.44,2.39-10.8,4.89-16.11,7.5-1.52.75-2.12,2.62-1.31,4.11h0c.76,1.43,2.52,1.98,3.97,1.27Z"/>
        <path class="cls-1" d="M218.24,69.12c-4.47,2.61-8.9,5.3-13.27,8.07-1.42.9-1.81,2.8-.88,4.2h0c.91,1.36,2.72,1.73,4.1.86,4.3-2.73,8.66-5.38,13.06-7.95,1.4-.81,1.9-2.58,1.14-4h0c-.8-1.5-2.69-2.04-4.15-1.18Z"/>
      </g>
    </g>
    <g>
      <path class="cls-1" d="M280.45,56.23h0c.62,1.51,2.34,2.23,3.86,1.64,18.74-7.31,37.9-13.15,57.4-17.5,1.59-.35,2.61-1.9,2.29-3.5h0c-.33-1.65-1.95-2.72-3.59-2.35-19.81,4.41-39.26,10.34-58.29,17.77-1.57.61-2.32,2.4-1.68,3.95Z"/>
      <path class="cls-1" d="M339.1,12.23h0c-.33-1.65-1.95-2.71-3.59-2.35-21.43,4.72-42.47,11.1-63.04,19.13-1.56.61-2.32,2.4-1.68,3.95h0c.63,1.51,2.34,2.23,3.86,1.64,20.27-7.91,41.01-14.2,62.14-18.85,1.6-.35,2.62-1.91,2.3-3.51Z"/>
      <g>
        <path class="cls-1" d="M292.33,35.05c-4.9,1.69-9.78,3.47-14.63,5.34-1.57.61-2.32,2.39-1.68,3.95h0c.62,1.51,2.33,2.23,3.85,1.64,4.77-1.85,9.58-3.6,14.4-5.26,1.53-.53,2.37-2.16,1.9-3.7h0c-.49-1.63-2.24-2.52-3.84-1.97Z"/>
        <path class="cls-1" d="M322.77,32.03c5.62-1.49,11.27-2.87,16.95-4.12,1.6-.35,2.62-1.91,2.3-3.51h0c-.33-1.65-1.94-2.71-3.58-2.35-5.77,1.27-11.51,2.67-17.22,4.19-1.64.44-2.59,2.15-2.09,3.78h0c.47,1.55,2.08,2.43,3.64,2.02Z"/>
      </g>
    </g>
    <g>
      <path class="cls-1" d="M421.9,28.03h0c0-1.68-1.39-3.05-3.07-3.01-20.48.47-40.72,2.47-60.64,5.96-1.66.29-2.75,1.9-2.42,3.55h0c.32,1.6,1.85,2.64,3.46,2.36,19.62-3.44,39.56-5.41,59.74-5.87,1.63-.04,2.93-1.36,2.93-2.99Z"/>
      <path class="cls-1" d="M357.26,24.46c20.43-3.55,41.19-5.55,62.21-5.97,1.63-.03,2.94-1.36,2.94-2.99h0c0-1.68-1.38-3.04-3.06-3.01-21.32.43-42.39,2.45-63.12,6.06-1.66.29-2.75,1.9-2.42,3.55h0c.32,1.6,1.85,2.64,3.45,2.36Z"/>
      <g>
        <path class="cls-1" d="M370.35,3.75c-5.71.76-11.39,1.63-17.05,2.62-1.66.29-2.75,1.9-2.42,3.55h0c.32,1.6,1.86,2.64,3.46,2.36,5.57-.97,11.17-1.83,16.79-2.58,1.61-.21,2.75-1.66,2.59-3.27h0c-.17-1.69-1.7-2.91-3.38-2.68Z"/>
        <path class="cls-1" d="M397.61,4.09h0c.16,1.61,1.56,2.79,3.18,2.69,6.04-.38,12.1-.65,18.18-.78,1.63-.03,2.94-1.36,2.94-2.99h0c0-1.68-1.38-3.04-3.06-3.01-6.17.13-12.32.4-18.45.79-1.69.11-2.96,1.61-2.79,3.3Z"/>
      </g>
    </g>
  </g>
  <g id="button_7" data-name="button 7">
    <g>
      <path class="cls-1" d="M28.52,421.9h0c1.63,0,2.95-1.31,2.99-2.94.44-20.15,2.38-40.06,5.78-59.66.28-1.61-.76-3.14-2.36-3.46h0c-1.65-.33-3.26.76-3.55,2.42-3.46,19.89-5.42,40.1-5.87,60.56-.04,1.68,1.33,3.07,3.01,3.07Z"/>
      <path class="cls-1" d="M15.51,421.91h0c1.63,0,2.96-1.31,2.99-2.94.45-21.04,2.47-41.83,6.05-62.28.28-1.61-.76-3.14-2.36-3.46h0c-1.65-.33-3.26.76-3.55,2.42-3.64,20.76-5.69,41.85-6.14,63.2-.04,1.68,1.33,3.06,3.01,3.06Z"/>
      <path class="cls-1" d="M9.91,350.88h0c-1.65-.33-3.26.76-3.55,2.42C2.59,374.82.46,396.7,0,418.85c-.03,1.68,1.33,3.06,3.01,3.06h0c1.63,0,2.96-1.31,2.99-2.94.45-21.83,2.55-43.4,6.28-64.62.28-1.61-.76-3.14-2.36-3.46Z"/>
    </g>
    <g>
      <path class="cls-1" d="M24.52,341.45h0c1.6.32,3.16-.7,3.51-2.3,4.5-20.35,10.57-40.34,18.19-59.87.59-1.52-.13-3.24-1.64-3.86h0c-1.55-.64-3.34.11-3.95,1.68-7.74,19.83-13.9,40.12-18.46,60.77-.36,1.64.7,3.26,2.35,3.59Z"/>
      <path class="cls-1" d="M32.95,270.81h0c-1.55-.64-3.34.11-3.95,1.68-8.03,20.57-14.41,41.61-19.13,63.04-.36,1.64.71,3.26,2.35,3.58h0c1.6.32,3.16-.71,3.51-2.3,4.65-21.12,10.94-41.86,18.85-62.14.59-1.52-.13-3.24-1.64-3.86Z"/>
      <g>
        <path class="cls-1" d="M53.1,298.17c1.59-4.61,3.26-9.2,5.03-13.76.59-1.52-.13-3.23-1.64-3.86h0c-1.55-.64-3.34.11-3.95,1.68-1.79,4.63-3.49,9.29-5.11,13.98-.55,1.61.34,3.35,1.97,3.85h0c1.54.47,3.18-.37,3.7-1.89Z"/>
        <path class="cls-1" d="M38.63,325.12c-1.35,5.1-2.6,10.23-3.74,15.38-.36,1.64.7,3.26,2.35,3.59h0c1.6.32,3.16-.7,3.51-2.3,1.12-5.06,2.36-10.1,3.68-15.12.41-1.56-.48-3.17-2.02-3.64h0c-1.62-.5-3.34.45-3.78,2.1Z"/>
      </g>
    </g>
    <g>
      <path class="cls-1" d="M123.23,131.72h0c-1.19-1.19-3.13-1.18-4.29.04-15.31,15.96-29.28,32.94-41.83,50.86-.96,1.38-.6,3.28.8,4.22h0c1.36.91,3.18.56,4.12-.78,12.38-17.66,26.14-34.4,41.24-50.14,1.13-1.18,1.12-3.04-.04-4.19Z"/>
      <g>
        <path class="cls-1" d="M131.06,164.91c3.31-3.74,6.69-7.43,10.15-11.06,1.12-1.18,1.11-3.03-.04-4.19h0c-1.19-1.19-3.13-1.18-4.3.04-3.52,3.69-6.95,7.44-10.31,11.24-1.13,1.27-.96,3.23.35,4.31h0c1.25,1.02,3.07.87,4.14-.34Z"/>
        <path class="cls-1" d="M107.38,184.27c-3.12,4.1-6.17,8.25-9.13,12.46-.97,1.38-.6,3.28.8,4.22h0c1.36.91,3.18.56,4.11-.77,2.91-4.14,5.91-8.23,8.98-12.26.98-1.28.77-3.11-.47-4.13h0c-1.31-1.08-3.26-.86-4.29.49Z"/>
      </g>
      <g>
        <path class="cls-1" d="M121.1,156.73c3.66-4.14,7.41-8.22,11.25-12.23,1.13-1.18,1.12-3.04-.04-4.2h0c-1.19-1.19-3.12-1.18-4.29.04-3.9,4.07-7.71,8.21-11.43,12.42-1.12,1.27-.96,3.23.35,4.3h0c1.25,1.03,3.08.87,4.15-.34Z"/>
        <path class="cls-1" d="M97.41,176.08c-3.33,4.36-6.58,8.77-9.74,13.25-.97,1.38-.6,3.28.79,4.22h0c1.36.91,3.18.56,4.12-.77,3.1-4.41,6.3-8.75,9.58-13.04.98-1.29.78-3.11-.47-4.14h0c-1.31-1.08-3.26-.86-4.29.49Z"/>
      </g>
    </g>
    <g>
      <path class="cls-1" d="M49.2,264.34h0c1.51.62,3.23-.07,3.89-1.57,8.47-19.2,18.33-37.61,29.54-55.15.88-1.38.51-3.2-.85-4.11h0c-1.4-.93-3.29-.54-4.2.87-11.38,17.81-21.39,36.49-29.98,55.98-.68,1.54.05,3.34,1.6,3.98Z"/>
      <g>
        <path class="cls-1" d="M85.06,228.49c2.64-4.54,5.36-9.04,8.17-13.47.87-1.38.5-3.2-.86-4.1h0c-1.4-.93-3.3-.54-4.2.88-2.86,4.51-5.63,9.07-8.31,13.69-.85,1.47-.31,3.35,1.19,4.15h0c1.43.76,3.19.25,4-1.15Z"/>
        <path class="cls-1" d="M65.68,252.17c-2.13,4.4-4.2,8.84-6.18,13.32-.68,1.54.05,3.34,1.61,3.98h0c1.51.62,3.23-.07,3.89-1.57,1.95-4.42,3.98-8.79,6.08-13.11.7-1.45.14-3.2-1.28-3.96h0c-1.5-.8-3.37-.2-4.11,1.33Z"/>
      </g>
      <g>
        <path class="cls-1" d="M62.63,216.46c3.04-5.25,6.18-10.44,9.45-15.55.88-1.38.5-3.2-.85-4.11h0c-1.4-.93-3.3-.54-4.2.87-3.31,5.19-6.51,10.46-9.59,15.79-.85,1.47-.3,3.35,1.19,4.15h0c1.43.76,3.19.25,4-1.15Z"/>
        <path class="cls-1" d="M43.24,240.11c-2.52,5.16-4.95,10.37-7.27,15.64-.68,1.54.05,3.34,1.61,3.98h0c1.51.62,3.23-.08,3.89-1.57,2.29-5.19,4.68-10.33,7.17-15.4.71-1.45.15-3.21-1.28-3.97h0c-1.5-.8-3.36-.2-4.11,1.32Z"/>
      </g>
    </g>
  </g>
  <g id="button_6" data-name="button 6">
    <g>
      <g>
        <path class="cls-1" d="M126.42,694.72c3.41,3.86,6.89,7.66,10.46,11.4,1.16,1.22,3.1,1.23,4.29.04h0c1.15-1.16,1.17-3.01.04-4.19-3.51-3.68-6.94-7.42-10.29-11.22-1.07-1.21-2.9-1.36-4.14-.34h0c-1.31,1.08-1.48,3.03-.35,4.31Z"/>
        <path class="cls-1" d="M112.02,667.73c-3.03-3.98-5.99-8.01-8.86-12.1-.94-1.33-2.76-1.68-4.11-.78h0c-1.4.94-1.77,2.84-.8,4.22,2.92,4.15,5.92,8.25,9,12.29,1.03,1.35,2.98,1.57,4.29.5h0c1.25-1.02,1.46-2.85.48-4.13Z"/>
      </g>
      <g>
        <path class="cls-1" d="M101.99,675.85c-3.22-4.21-6.36-8.48-9.41-12.81-.94-1.33-2.76-1.68-4.12-.78h0c-1.4.94-1.76,2.84-.79,4.22,3.1,4.4,6.29,8.74,9.56,13.02,1.03,1.35,2.98,1.57,4.29.49h0c1.25-1.03,1.46-2.86.47-4.14Z"/>
        <path class="cls-1" d="M116.41,702.83c3.78,4.28,7.65,8.5,11.62,12.64,1.16,1.21,3.1,1.22,4.29.04h0c1.16-1.16,1.17-3.02.04-4.2-3.91-4.08-7.72-8.23-11.44-12.45-1.07-1.21-2.9-1.36-4.15-.34h0c-1.31,1.08-1.48,3.03-.35,4.3Z"/>
      </g>
      <g>
        <path class="cls-1" d="M92.32,683.78c-3.53-4.61-6.96-9.28-10.29-14.02-.94-1.34-2.76-1.69-4.12-.78h0c-1.4.93-1.76,2.84-.8,4.22,3.38,4.81,6.87,9.56,10.45,14.23,1.03,1.35,2.98,1.56,4.29.49h0c1.25-1.03,1.46-2.86.47-4.14Z"/>
        <path class="cls-1" d="M106.74,710.76c3.97,4.5,8.04,8.94,12.21,13.29,1.16,1.21,3.1,1.23,4.29.04h0c1.16-1.16,1.17-3.02.04-4.2-4.11-4.29-8.12-8.66-12.03-13.1-1.07-1.21-2.9-1.37-4.15-.34h0c-1.31,1.08-1.48,3.03-.36,4.3Z"/>
      </g>
    </g>
    <g>
      <path class="cls-1" d="M93.23,640.78c-10.71-16.83-20.13-34.48-28.24-52.88-.66-1.49-2.38-2.19-3.89-1.57h0c-1.55.64-2.28,2.44-1.61,3.98,8.23,18.68,17.8,36.6,28.67,53.69.9,1.42,2.81,1.81,4.2.88h0c1.36-.91,1.73-2.72.86-4.1Z"/>
      <g>
        <path class="cls-1" d="M60.22,608.31c-2.47-5.03-4.85-10.12-7.13-15.27-.66-1.49-2.38-2.19-3.89-1.57h0c-1.55.64-2.28,2.44-1.6,3.98,2.31,5.23,4.73,10.4,7.24,15.51.75,1.52,2.62,2.11,4.11,1.31h0c1.42-.76,1.98-2.52,1.27-3.97Z"/>
        <path class="cls-1" d="M70.31,633.42h0c-1.5.8-2.03,2.69-1.18,4.15,2.73,4.67,5.54,9.3,8.45,13.86.9,1.42,2.8,1.8,4.2.87h0c1.36-.91,1.73-2.73.85-4.11-2.86-4.49-5.63-9.04-8.32-13.63-.82-1.4-2.58-1.9-4.01-1.14Z"/>
      </g>
      <g>
        <path class="cls-1" d="M49.19,614.22c-2.69-5.46-5.27-10.98-7.73-16.57-.66-1.49-2.38-2.19-3.89-1.57h0c-1.55.64-2.28,2.44-1.61,3.98,2.5,5.67,5.12,11.28,7.85,16.82.75,1.52,2.62,2.11,4.11,1.31h0c1.43-.77,1.98-2.52,1.27-3.97Z"/>
        <path class="cls-1" d="M58.1,643.49c2.88,4.95,5.85,9.83,8.93,14.66.9,1.42,2.8,1.81,4.2.87h0c1.36-.91,1.73-2.73.85-4.11-3.03-4.75-5.95-9.56-8.79-14.43-.81-1.4-2.58-1.9-4.01-1.14h0c-1.49.8-2.03,2.69-1.18,4.15Z"/>
      </g>
    </g>
    <g>
      <path class="cls-1" d="M58.13,571.4c-7.27-18.73-13.07-37.88-17.38-57.37-.35-1.59-1.9-2.62-3.51-2.3h0c-1.65.33-2.72,1.95-2.35,3.59,4.38,19.79,10.27,39.24,17.65,58.25.61,1.57,2.4,2.33,3.95,1.68h0c1.51-.62,2.23-2.34,1.64-3.86Z"/>
      <path class="cls-1" d="M12.23,516.71h0c-1.65.33-2.71,1.95-2.35,3.59,4.72,21.43,11.1,42.47,19.13,63.04.61,1.56,2.4,2.32,3.95,1.68h0c1.51-.63,2.23-2.34,1.64-3.86-7.91-20.27-14.2-41.01-18.85-62.14-.35-1.6-1.91-2.62-3.51-2.3Z"/>
      <g>
        <path class="cls-1" d="M32.03,533.04c-1.44-5.43-2.78-10.89-4-16.38-.35-1.59-1.91-2.62-3.51-2.3h0c-1.65.33-2.71,1.95-2.35,3.59,1.24,5.58,2.6,11.12,4.06,16.64.44,1.64,2.15,2.59,3.78,2.09h0c1.55-.47,2.43-2.08,2.02-3.64Z"/>
        <path class="cls-1" d="M37.01,559.64h0c-1.62.49-2.52,2.24-1.97,3.84,1.76,5.11,3.62,10.19,5.58,15.24.61,1.56,2.39,2.32,3.95,1.68h0c1.51-.63,2.23-2.34,1.64-3.86-1.94-4.97-3.76-9.97-5.5-15-.53-1.53-2.16-2.37-3.71-1.9Z"/>
      </g>
    </g>
    <g>
      <path class="cls-1" d="M34.93,499.95h0c1.6-.32,2.64-1.85,2.36-3.46-3.41-19.59-5.34-39.51-5.78-59.66-.04-1.63-1.36-2.94-2.99-2.94h0c-1.68,0-3.05,1.38-3.01,3.07.45,20.46,2.41,40.67,5.87,60.56.29,1.66,1.9,2.75,3.55,2.42Z"/>
      <path class="cls-1" d="M24.56,499.13c-3.58-20.45-5.61-41.24-6.06-62.28-.03-1.63-1.36-2.94-2.99-2.94h0c-1.68,0-3.04,1.38-3.01,3.06.45,21.35,2.51,42.45,6.14,63.2.29,1.66,1.9,2.75,3.55,2.42h0c1.6-.32,2.64-1.85,2.36-3.46Z"/>
      <g>
        <path class="cls-1" d="M6.78,455.02c-.38-6.04-.65-12.09-.78-18.17-.03-1.63-1.36-2.94-2.99-2.94h0c-1.68,0-3.04,1.38-3.01,3.06.13,6.17.4,12.32.79,18.44.11,1.69,1.61,2.96,3.3,2.79h0c1.61-.16,2.79-1.57,2.69-3.18Z"/>
        <path class="cls-1" d="M6.43,482.08h0c-1.69.17-2.91,1.7-2.68,3.38.76,5.71,1.63,11.39,2.62,17.05.29,1.66,1.9,2.75,3.55,2.42h0c1.6-.32,2.64-1.86,2.36-3.46-.97-5.57-1.83-11.17-2.58-16.79-.21-1.61-1.66-2.75-3.27-2.59Z"/>
      </g>
    </g>
  </g>
  <g id="button_5" data-name="button 5">
    <g>
      <path class="cls-1" d="M421.9,827.78h0c0-1.63-1.3-2.95-2.93-2.99-20.18-.47-40.12-2.43-59.74-5.87-1.61-.28-3.14.76-3.46,2.36h0c-.33,1.65.76,3.26,2.42,3.55,19.92,3.5,40.16,5.49,60.64,5.96,1.68.04,3.07-1.33,3.07-3.01Z"/>
      <path class="cls-1" d="M356.23,837.26c20.73,3.6,41.8,5.63,63.12,6.06,1.68.03,3.06-1.33,3.06-3.01h0c0-1.64-1.31-2.96-2.94-2.99-21.01-.42-41.78-2.42-62.21-5.97-1.6-.28-3.14.76-3.45,2.36h0c-.33,1.65.76,3.26,2.42,3.55Z"/>
      <path class="cls-1" d="M353.3,849.44c21.52,3.78,43.4,5.91,65.55,6.37,1.68.03,3.06-1.33,3.06-3.01h0c0-1.63-1.31-2.96-2.94-2.99-21.83-.45-43.4-2.55-64.62-6.28-1.61-.28-3.14.76-3.46,2.36h0c-.33,1.65.76,3.26,2.42,3.55Z"/>
    </g>
    <g>
      <path class="cls-1" d="M277.7,815.42c19.82,7.7,40.1,13.82,60.74,18.35,1.64.36,3.26-.71,3.58-2.35h0c.32-1.6-.71-3.16-2.3-3.51-20.34-4.46-40.31-10.5-59.84-18.08-1.52-.59-3.23.13-3.86,1.64h0c-.64,1.55.11,3.34,1.68,3.95Z"/>
      <path class="cls-1" d="M272.48,826.8c20.57,8.03,41.61,14.41,63.04,19.13,1.64.36,3.26-.71,3.59-2.35h0c.32-1.6-.71-3.16-2.3-3.51-21.12-4.65-41.86-10.94-62.14-18.85-1.52-.59-3.24.13-3.86,1.64h0c-.64,1.55.11,3.34,1.68,3.95Z"/>
      <g>
        <path class="cls-1" d="M298.08,803c-4.62-1.6-9.21-3.29-13.77-5.06-1.52-.59-3.24.13-3.86,1.64h0c-.64,1.55.11,3.34,1.68,3.95,4.64,1.81,9.31,3.51,13.99,5.14,1.61.56,3.36-.34,3.85-1.97h0c.47-1.54-.37-3.17-1.89-3.7Z"/>
        <path class="cls-1" d="M325.01,817.52c5.11,1.36,10.25,2.62,15.41,3.78,1.64.37,3.26-.7,3.59-2.35h0c.32-1.6-.7-3.15-2.3-3.51-5.07-1.13-10.12-2.38-15.15-3.71-1.56-.42-3.17.47-3.64,2.02h0c-.49,1.62.45,3.34,2.09,3.78Z"/>
      </g>
    </g>
    <g>
      <path class="cls-1" d="M131.76,736.86c15.96,15.31,32.94,29.28,50.86,41.83,1.38.96,3.28.6,4.22-.8h0c.91-1.36.56-3.18-.78-4.12-17.66-12.38-34.4-26.14-50.14-41.24-1.18-1.13-3.04-1.12-4.19.04h0c-1.19,1.19-1.17,3.13.04,4.29Z"/>
      <g>
        <path class="cls-1" d="M164.88,724.79c-3.74-3.32-7.42-6.71-11.05-10.18-1.18-1.13-3.04-1.12-4.19.04h0c-1.19,1.19-1.18,3.13.04,4.29,3.68,3.52,7.42,6.96,11.22,10.34,1.27,1.13,3.23.97,4.31-.35h0c1.02-1.25.87-3.07-.33-4.14Z"/>
        <path class="cls-1" d="M184.21,748.5c4.1,3.13,8.25,6.19,12.46,9.16,1.38.97,3.28.61,4.22-.79h0c.9-1.36.56-3.18-.77-4.12-4.14-2.92-8.22-5.93-12.25-9.01-1.28-.98-3.11-.78-4.14.47h0c-1.08,1.31-.86,3.26.49,4.29Z"/>
      </g>
      <g>
        <path class="cls-1" d="M156.73,734.71c-3.97-3.51-7.88-7.09-11.72-10.76-1.18-1.13-3.04-1.11-4.19.04h0c-1.19,1.19-1.17,3.13.04,4.29,3.91,3.73,7.88,7.37,11.91,10.93,1.27,1.12,3.23.96,4.3-.35h0c1.03-1.25.87-3.08-.34-4.15Z"/>
        <path class="cls-1" d="M176.08,758.4c4.54,3.47,9.15,6.86,13.83,10.14,1.38.96,3.28.6,4.21-.8h0c.91-1.36.56-3.18-.78-4.12-4.6-3.23-9.14-6.56-13.61-9.98-1.29-.98-3.11-.78-4.14.47h0c-1.08,1.31-.86,3.26.49,4.29Z"/>
      </g>
    </g>
    <g>
      <path class="cls-1" d="M204.97,778.61c17.81,11.34,36.5,21.31,55.99,29.87,1.54.68,3.33-.05,3.98-1.61h0c.63-1.51-.08-3.23-1.57-3.89-19.2-8.43-37.62-18.25-55.17-29.43-1.38-.88-3.2-.5-4.1.86h0c-.93,1.4-.54,3.3.88,4.2Z"/>
      <g>
        <path class="cls-1" d="M228.42,770.91c-4.54-2.65-9.04-5.38-13.47-8.2-1.38-.88-3.2-.5-4.11.85h0c-.93,1.4-.54,3.29.87,4.2,4.51,2.87,9.07,5.65,13.69,8.34,1.47.86,3.36.31,4.15-1.19h0c.76-1.43.25-3.19-1.14-4Z"/>
        <path class="cls-1" d="M252.06,790.33c4.4,2.15,8.84,4.22,13.33,6.21,1.54.68,3.34-.05,3.99-1.6h0c.62-1.51-.07-3.22-1.56-3.88-4.42-1.96-8.79-4-13.12-6.11-1.45-.71-3.2-.15-3.96,1.28h0c-.8,1.5-.2,3.37,1.33,4.11Z"/>
      </g>
      <g>
        <path class="cls-1" d="M216.46,793.17c-5.25-3.04-10.44-6.18-15.55-9.45-1.38-.88-3.2-.5-4.11.85h0c-.93,1.4-.54,3.3.87,4.2,5.19,3.31,10.46,6.51,15.79,9.59,1.47.85,3.35.3,4.15-1.19h0c.76-1.43.25-3.19-1.15-4Z"/>
        <path class="cls-1" d="M238.79,808.46h0c-.8,1.5-.2,3.36,1.32,4.11,5.16,2.52,10.37,4.95,15.64,7.27,1.54.68,3.34-.05,3.98-1.61h0c.62-1.51-.08-3.23-1.57-3.89-5.19-2.29-10.32-4.68-15.4-7.16-1.45-.71-3.21-.15-3.97,1.28Z"/>
      </g>
    </g>
  </g>
  <g id="button_4" data-name="button 4">
    <g>
      <g>
        <path class="cls-1" d="M695.17,729.93c3.87-3.42,7.69-6.92,11.45-10.5,1.22-1.16,1.23-3.1.04-4.29h0c-1.15-1.16-3.01-1.17-4.19-.04-3.7,3.53-7.46,6.97-11.27,10.34-1.21,1.07-1.36,2.9-.34,4.14h0c1.08,1.32,3.03,1.48,4.3.36Z"/>
        <path class="cls-1" d="M668.18,744.33c-4,3.04-8.05,6.01-12.16,8.9-1.33.94-1.68,2.76-.78,4.11h0c.93,1.4,2.84,1.77,4.22.8,4.17-2.93,8.29-5.95,12.35-9.04,1.35-1.03,1.57-2.98.5-4.29h0c-1.02-1.25-2.85-1.46-4.13-.48Z"/>
      </g>
      <g>
        <path class="cls-1" d="M675.91,753.77c-4.2,3.21-8.45,6.34-12.76,9.38-1.33.94-1.68,2.76-.77,4.12h0c.93,1.4,2.84,1.76,4.22.8,4.38-3.09,8.7-6.27,12.97-9.53,1.35-1.03,1.57-2.98.49-4.29h0c-1.03-1.25-2.86-1.46-4.14-.48Z"/>
        <path class="cls-1" d="M702.89,739.35c4.26-3.77,8.46-7.62,12.58-11.57,1.21-1.16,1.22-3.1.04-4.29h0c-1.16-1.16-3.02-1.17-4.2-.04-4.06,3.89-8.19,7.68-12.39,11.39-1.21,1.07-1.36,2.9-.34,4.15h0c1.08,1.31,3.03,1.48,4.3.35Z"/>
      </g>
      <path class="cls-1" d="M710.82,749.02c4.48-3.95,8.9-8,13.23-12.16,1.21-1.16,1.23-3.1.04-4.29h0c-1.15-1.16-3.02-1.17-4.2-.04-4.27,4.09-8.62,8.08-13.04,11.98-1.21,1.07-1.37,2.9-.34,4.15h0c1.08,1.31,3.03,1.48,4.3.36Z"/>
      <path class="cls-1" d="M683.84,763.44c-4.63,3.54-9.32,6.99-14.08,10.34-1.34.94-1.69,2.76-.78,4.12h0c.93,1.4,2.84,1.76,4.22.8,4.84-3.39,9.6-6.9,14.3-10.5,1.34-1.03,1.56-2.98.49-4.29h0c-1.03-1.25-2.86-1.46-4.14-.47Z"/>
    </g>
    <g>
      <path class="cls-1" d="M641.17,763.16c-16.87,10.72-34.57,20.16-53.02,28.27-1.49.66-2.19,2.38-1.57,3.89h0c.64,1.55,2.44,2.28,3.98,1.61,18.73-8.24,36.69-17.82,53.82-28.71,1.42-.9,1.81-2.81.88-4.21h0c-.91-1.36-2.72-1.73-4.1-.86Z"/>
      <g>
        <path class="cls-1" d="M608.3,795.59c-4.95,2.43-9.96,4.78-15.02,7.02-1.49.66-2.19,2.38-1.57,3.89h0c.64,1.56,2.44,2.28,3.98,1.6,5.15-2.28,10.23-4.66,15.26-7.13,1.52-.75,2.11-2.62,1.31-4.11h0c-.76-1.43-2.52-1.98-3.97-1.27Z"/>
        <path class="cls-1" d="M637.57,786.68c4.71-2.75,9.37-5.59,13.97-8.53,1.41-.9,1.8-2.8.87-4.2h0c-.91-1.36-2.73-1.73-4.11-.85-4.52,2.89-9.11,5.68-13.75,8.39-1.4.82-1.9,2.58-1.14,4.01h0c.8,1.5,2.69,2.04,4.15,1.18Z"/>
      </g>
      <g>
        <path class="cls-1" d="M643.49,797.71c4.94-2.88,9.83-5.85,14.65-8.93,1.42-.9,1.81-2.8.87-4.2h0c-.91-1.36-2.73-1.73-4.11-.85-4.75,3.03-9.56,5.95-14.43,8.79-1.4.81-1.9,2.58-1.14,4.01h0c.8,1.49,2.69,2.03,4.15,1.18Z"/>
        <path class="cls-1" d="M614.22,806.62c-5.46,2.69-10.98,5.27-16.57,7.73-1.49.66-2.19,2.38-1.57,3.89h0c.64,1.55,2.44,2.28,3.98,1.61,5.67-2.5,11.28-5.12,16.82-7.85,1.52-.75,2.11-2.62,1.31-4.11h0c-.76-1.43-2.52-1.98-3.97-1.27Z"/>
      </g>
    </g>
    <g>
      <path class="cls-1" d="M571.65,798.27c-18.77,7.27-37.96,13.07-57.5,17.37-1.6.35-2.62,1.9-2.3,3.51h0c.33,1.65,1.95,2.72,3.59,2.35,19.84-4.37,39.33-10.25,58.39-17.64,1.57-.61,2.33-2.4,1.68-3.95h0c-.62-1.51-2.33-2.23-3.85-1.64Z"/>
      <path class="cls-1" d="M516.7,843.58h0c.33,1.65,1.95,2.71,3.59,2.35,21.43-4.72,42.47-11.1,63.04-19.13,1.56-.61,2.32-2.4,1.68-3.95h0c-.63-1.51-2.34-2.23-3.86-1.64-20.27,7.91-41.01,14.2-62.13,18.85-1.6.35-2.62,1.91-2.3,3.51Z"/>
      <g>
        <path class="cls-1" d="M563.48,820.76c5.19-1.79,10.36-3.68,15.49-5.68,1.56-.61,2.32-2.4,1.67-3.95h0c-.63-1.51-2.34-2.23-3.87-1.64-5.05,1.97-10.14,3.83-15.25,5.59-1.53.53-2.37,2.16-1.9,3.71h0c.49,1.62,2.24,2.52,3.84,1.97Z"/>
        <path class="cls-1" d="M533.04,823.78c-5.31,1.41-10.64,2.72-16,3.92-1.59.35-2.62,1.91-2.3,3.51h0c.33,1.65,1.95,2.72,3.59,2.35,5.45-1.21,10.86-2.55,16.26-3.98,1.64-.44,2.59-2.15,2.09-3.78h0c-.47-1.55-2.08-2.43-3.64-2.02Z"/>
      </g>
    </g>
    <g>
      <path class="cls-1" d="M496.61,819.08c-19.63,3.4-39.58,5.31-59.77,5.73-1.63.03-2.94,1.36-2.94,2.99h0c0,1.68,1.38,3.04,3.06,3.01,20.49-.42,40.75-2.37,60.67-5.82,1.66-.29,2.76-1.9,2.43-3.55h0c-.32-1.6-1.85-2.64-3.45-2.36Z"/>
      <path class="cls-1" d="M434.41,840.28h0c0,1.68,1.38,3.05,3.06,3.01,21.31-.48,42.37-2.55,63.09-6.2,1.66-.29,2.74-1.9,2.42-3.55h0c-.32-1.6-1.85-2.65-3.46-2.36-20.42,3.6-41.17,5.64-62.17,6.11-1.63.04-2.93,1.36-2.93,2.99Z"/>
      <g>
        <path class="cls-1" d="M455.02,849.03c-6.04.38-12.1.65-18.18.78-1.63.03-2.94,1.36-2.94,2.99h0c0,1.68,1.38,3.04,3.06,3.01,6.17-.13,12.32-.4,18.45-.79,1.69-.11,2.96-1.61,2.79-3.3h0c-.16-1.61-1.56-2.79-3.18-2.69Z"/>
        <path class="cls-1" d="M485.46,852.06c5.71-.76,11.39-1.63,17.05-2.62,1.66-.29,2.75-1.9,2.42-3.55h0c-.32-1.6-1.86-2.64-3.46-2.36-5.57.97-11.17,1.83-16.79,2.58-1.61.21-2.75,1.66-2.59,3.27h0c.17,1.69,1.7,2.91,3.38,2.68Z"/>
      </g>
    </g>
  </g>
  <g id="button_3" data-name="button 3">
    <g>
      <path class="cls-1" d="M828.29,433.9h0c-1.63,0-2.95,1.31-2.99,2.94-.44,20.22-2.39,40.19-5.82,59.85-.28,1.61.76,3.14,2.36,3.46h0c1.65.33,3.26-.76,3.55-2.42,3.48-19.95,5.46-40.23,5.91-60.75.04-1.68-1.33-3.07-3.01-3.07Z"/>
      <path class="cls-1" d="M840.3,433.91h0c-1.63,0-2.95,1.31-2.99,2.94-.45,20.98-2.46,41.7-6.02,62.09-.28,1.61.76,3.14,2.36,3.46h0c1.65.33,3.26-.76,3.55-2.42,3.62-20.69,5.66-41.72,6.11-63.01.04-1.68-1.33-3.06-3.01-3.06Z"/>
      <path class="cls-1" d="M845.9,504.93h0c1.65.33,3.26-.76,3.55-2.42,3.78-21.52,5.91-43.4,6.37-65.55.03-1.68-1.33-3.06-3.01-3.06h0c-1.63,0-2.96,1.31-2.99,2.94-.45,21.83-2.55,43.4-6.28,64.62-.28,1.61.76,3.14,2.36,3.46Z"/>
    </g>
    <g>
      <path class="cls-1" d="M831.33,514.17h0c-1.6-.32-3.16.71-3.51,2.3-4.48,20.29-10.51,40.22-18.09,59.71-.59,1.52.13,3.24,1.64,3.86h0c1.55.64,3.34-.11,3.95-1.68,7.69-19.78,13.82-40.01,18.37-60.61.36-1.64-.7-3.26-2.35-3.59Z"/>
      <path class="cls-1" d="M822.85,585.01h0c1.55.64,3.34-.11,3.95-1.68,8.03-20.57,14.41-41.61,19.13-63.04.36-1.64-.71-3.26-2.35-3.59h0c-1.6-.32-3.16.71-3.51,2.3-4.65,21.12-10.94,41.86-18.85,62.13-.59,1.52.13,3.24,1.64,3.86Z"/>
      <g>
        <path class="cls-1" d="M818.1,530.98c1.36-5.13,2.62-10.29,3.78-15.47.36-1.64-.7-3.26-2.35-3.59h0c-1.6-.32-3.15.7-3.51,2.3-1.13,5.09-2.38,10.16-3.71,15.21-.41,1.56.47,3.17,2.02,3.64h0c1.62.49,3.34-.45,3.78-2.09Z"/>
        <path class="cls-1" d="M803.61,557.92c-1.61,4.64-3.29,9.25-5.07,13.84-.59,1.52.13,3.23,1.64,3.86h0c1.55.64,3.34-.11,3.95-1.68,1.81-4.66,3.52-9.35,5.15-14.06.56-1.61-.34-3.35-1.97-3.85h0c-1.54-.47-3.17.37-3.7,1.89Z"/>
      </g>
    </g>
    <g>
      <path class="cls-1" d="M732.54,724.06l.07.07c1.17,1.17,3.07,1.16,4.22-.04,15.34-15.98,29.32-32.99,41.9-50.93.95-1.35.59-3.23-.79-4.15l-.08-.06c-1.33-.89-3.13-.55-4.05.77-12.39,17.69-26.18,34.45-41.3,50.21-1.11,1.16-1.1,2.99.03,4.13Z"/>
      <g>
        <path class="cls-1" d="M758.37,679.77c3.47-4.53,6.84-9.13,10.12-13.79.95-1.35.59-3.23-.78-4.15l-.08-.06c-1.33-.89-3.13-.55-4.05.77-3.22,4.59-6.54,9.11-9.95,13.57-.97,1.26-.77,3.06.46,4.07l.08.06c1.29,1.06,3.2.84,4.22-.48Z"/>
        <path class="cls-1" d="M734.74,699.04c-3.53,3.99-7.14,7.93-10.83,11.8-1.11,1.16-1.1,2.99.04,4.12l.07.07c1.17,1.17,3.08,1.16,4.22-.04,3.76-3.93,7.42-7.93,11-11.98,1.11-1.25.95-3.17-.35-4.23l-.08-.06c-1.23-1.01-3.02-.86-4.08.33Z"/>
      </g>
      <g>
        <path class="cls-1" d="M749.01,672.08c3.17-4.14,6.26-8.34,9.26-12.59.95-1.35.6-3.23-.78-4.15l-.09-.06c-1.33-.89-3.12-.55-4.04.76-2.95,4.19-5.99,8.31-9.11,12.39-.97,1.26-.76,3.06.46,4.07l.08.07c1.29,1.06,3.2.84,4.22-.48Z"/>
        <path class="cls-1" d="M725.36,691.34c-3.35,3.78-6.78,7.51-10.29,11.17-1.11,1.16-1.1,2.99.04,4.12l.07.07c1.17,1.17,3.08,1.16,4.22-.04,3.56-3.72,7.04-7.51,10.45-11.35,1.11-1.25.95-3.18-.34-4.24l-.08-.06c-1.23-1.01-3.02-.86-4.07.33Z"/>
      </g>
    </g>
    <g>
      <path class="cls-1" d="M806.76,591.12h0c-1.51-.63-3.23.08-3.89,1.57-8.43,19.16-18.24,37.53-29.39,55.04-.88,1.38-.5,3.2.86,4.11h0c1.4.93,3.3.54,4.2-.87,11.32-17.77,21.28-36.42,29.83-55.86.68-1.54-.05-3.34-1.61-3.98Z"/>
      <g>
        <path class="cls-1" d="M790.92,604.06c2.15-4.42,4.23-8.88,6.23-13.4.68-1.54-.05-3.34-1.6-3.99h0c-1.51-.62-3.23.07-3.88,1.56-1.97,4.44-4.01,8.83-6.13,13.19-.71,1.45-.15,3.2,1.28,3.96h0c1.5.8,3.37.2,4.11-1.33Z"/>
        <path class="cls-1" d="M771.52,627.72c-2.66,4.56-5.4,9.08-8.23,13.53-.88,1.38-.5,3.2.86,4.11h0c1.4.93,3.3.54,4.2-.87,2.88-4.53,5.67-9.11,8.37-13.76.85-1.47.31-3.36-1.19-4.15h0c-1.43-.76-3.19-.25-4,1.15Z"/>
      </g>
      <g>
        <path class="cls-1" d="M793.17,639.35c-3.04,5.25-6.18,10.44-9.45,15.55-.88,1.38-.5,3.2.85,4.11h0c1.4.93,3.3.54,4.2-.87,3.31-5.19,6.51-10.46,9.59-15.79.85-1.47.3-3.35-1.19-4.15h0c-1.43-.76-3.19-.25-4,1.15Z"/>
        <path class="cls-1" d="M812.57,615.7c2.52-5.16,4.95-10.37,7.27-15.64.68-1.54-.05-3.34-1.61-3.98h0c-1.51-.63-3.23.08-3.89,1.57-2.29,5.19-4.68,10.32-7.16,15.4-.71,1.45-.15,3.21,1.28,3.97h0c1.5.8,3.36.2,4.11-1.32Z"/>
      </g>
    </g>
  </g>
  <g id="button_2" data-name="button 2">
    <g>
      <g>
        <path class="cls-1" d="M743.92,186.95c3.22,4.2,6.36,8.46,9.4,12.78.94,1.33,2.76,1.68,4.12.77h0c1.4-.94,1.76-2.84.79-4.22-3.1-4.39-6.29-8.72-9.56-12.99-1.03-1.34-2.97-1.56-4.28-.49h0c-1.25,1.03-1.46,2.86-.47,4.15Z"/>
        <path class="cls-1" d="M729.42,160.01c-3.26-3.66-6.58-7.27-9.98-10.82-1.16-1.21-3.1-1.23-4.29-.04h0c-1.15,1.15-1.17,3.01-.04,4.19,3.35,3.5,6.62,7.05,9.83,10.66,1.07,1.2,2.89,1.35,4.14.33h0c1.32-1.08,1.48-3.04.35-4.32Z"/>
      </g>
      <g>
        <path class="cls-1" d="M738.81,152.32c-3.44-3.88-6.94-7.7-10.54-11.46-1.16-1.22-3.11-1.23-4.3-.04h0c-1.15,1.15-1.17,3.01-.04,4.19,3.54,3.7,6.99,7.47,10.38,11.29,1.07,1.21,2.89,1.36,4.14.33h0c1.32-1.08,1.48-3.04.35-4.31Z"/>
        <path class="cls-1" d="M753.29,179.27c3.52,4.59,6.94,9.24,10.25,13.96.94,1.34,2.76,1.69,4.12.78h0c1.4-.93,1.76-2.84.8-4.22-3.37-4.8-6.84-9.52-10.42-14.18-1.03-1.34-2.97-1.56-4.28-.49h0c-1.25,1.03-1.46,2.86-.47,4.15Z"/>
      </g>
      <g>
        <path class="cls-1" d="M748.49,144.39c-3.78-4.28-7.65-8.49-11.62-12.63-1.16-1.21-3.1-1.23-4.29-.04h0c-1.15,1.16-1.17,3.02-.04,4.2,3.91,4.08,7.72,8.23,11.45,12.44,1.07,1.21,2.9,1.36,4.15.34h0c1.31-1.08,1.48-3.03.35-4.31Z"/>
        <path class="cls-1" d="M763.43,167.19h0c-1.25,1.03-1.46,2.86-.47,4.15,3.71,4.83,7.33,9.74,10.82,14.72.94,1.34,2.76,1.68,4.12.78h0c1.4-.94,1.76-2.84.8-4.22-3.55-5.06-7.21-10.04-10.98-14.94-1.03-1.34-2.97-1.56-4.28-.48Z"/>
      </g>
    </g>
    <g>
      <path class="cls-1" d="M763.28,214.56c10.76,16.87,20.24,34.56,28.38,53,.66,1.49,2.38,2.19,3.88,1.57h0c1.56-.64,2.29-2.45,1.61-3.99-8.27-18.73-17.89-36.69-28.82-53.81-.9-1.42-2.8-1.81-4.2-.87h0c-1.36.91-1.73,2.73-.85,4.1Z"/>
      <g>
        <path class="cls-1" d="M786.69,218.24c-2.63-4.51-5.35-8.98-8.15-13.38-.9-1.42-2.8-1.81-4.2-.88h0c-1.36.91-1.73,2.73-.86,4.1,2.76,4.34,5.43,8.73,8.02,13.17.81,1.39,2.58,1.9,4,1.14h0c1.49-.8,2.03-2.69,1.18-4.15Z"/>
        <path class="cls-1" d="M795.59,247.5c2.53,5.15,4.96,10.35,7.28,15.62.66,1.49,2.38,2.19,3.89,1.57h0c1.55-.64,2.28-2.44,1.61-3.98-2.36-5.35-4.83-10.64-7.4-15.87-.75-1.52-2.62-2.12-4.11-1.31h0c-1.42.76-1.98,2.52-1.27,3.97Z"/>
      </g>
      <g>
        <path class="cls-1" d="M797.76,212.41c-2.9-4.98-5.89-9.89-8.98-14.74-.9-1.42-2.8-1.81-4.2-.87h0c-1.36.91-1.73,2.73-.85,4.11,3.05,4.78,5.99,9.62,8.84,14.52.81,1.4,2.58,1.9,4.01,1.14h0c1.49-.8,2.03-2.69,1.18-4.15Z"/>
        <path class="cls-1" d="M806.66,241.68c2.67,5.43,5.24,10.92,7.69,16.48.66,1.49,2.38,2.19,3.89,1.57h0c1.55-.64,2.28-2.44,1.61-3.98-2.48-5.64-5.09-11.22-7.8-16.73-.75-1.52-2.62-2.11-4.11-1.31h0c-1.42.77-1.98,2.52-1.27,3.97Z"/>
      </g>
    </g>
    <g>
      <path class="cls-1" d="M821.88,340.3c-4.4-19.85-10.33-39.35-17.75-58.42-.61-1.57-2.4-2.32-3.95-1.68h0c-1.51.62-2.23,2.34-1.64,3.86,7.31,18.78,13.15,37.98,17.48,57.53.35,1.59,1.9,2.61,3.5,2.3h0c1.65-.33,2.72-1.95,2.35-3.59Z"/>
      <path class="cls-1" d="M843.58,339.11h0c1.65-.33,2.71-1.95,2.35-3.59-4.72-21.43-11.1-42.47-19.13-63.04-.61-1.56-2.4-2.32-3.95-1.68h0c-1.51.63-2.23,2.34-1.64,3.86,7.91,20.27,14.2,41.01,18.85,62.13.35,1.6,1.91,2.62,3.51,2.3Z"/>
      <g>
        <path class="cls-1" d="M820.76,292.33c-1.72-4.99-3.53-9.95-5.44-14.88-.61-1.57-2.39-2.32-3.95-1.68h0c-1.51.63-2.23,2.34-1.64,3.86,1.88,4.86,3.67,9.74,5.36,14.65.53,1.53,2.16,2.37,3.7,1.89h0c1.62-.5,2.52-2.24,1.97-3.84Z"/>
        <path class="cls-1" d="M825.8,319.13h0c-1.55.47-2.43,2.08-2.02,3.64,1.46,5.5,2.81,11.02,4.04,16.57.35,1.6,1.91,2.62,3.51,2.3h0c1.65-.33,2.71-1.95,2.35-3.59-1.25-5.64-2.62-11.25-4.11-16.84-.44-1.64-2.15-2.59-3.78-2.09Z"/>
      </g>
    </g>
    <g>
      <path class="cls-1" d="M821.85,355.66h0c-1.6.32-2.64,1.85-2.36,3.46,3.43,19.66,5.38,39.63,5.82,59.85.04,1.63,1.36,2.94,2.99,2.94h0c1.68,0,3.05-1.38,3.01-3.07-.45-20.52-2.42-40.8-5.91-60.75-.29-1.66-1.9-2.75-3.55-2.42Z"/>
      <path class="cls-1" d="M833.65,353.42h0c-1.6.32-2.64,1.85-2.36,3.46,3.56,20.39,5.58,41.12,6.02,62.09.03,1.63,1.36,2.94,2.99,2.94h0c1.68,0,3.04-1.38,3.01-3.06-.45-21.29-2.5-42.32-6.11-63.01-.29-1.66-1.9-2.75-3.55-2.42Z"/>
      <g>
        <path class="cls-1" d="M852.06,370.35c-.76-5.71-1.63-11.39-2.62-17.05-.29-1.66-1.9-2.75-3.55-2.42h0c-1.6.32-2.64,1.86-2.36,3.46.97,5.57,1.83,11.17,2.58,16.79.21,1.61,1.66,2.75,3.27,2.59h0c1.69-.17,2.91-1.7,2.68-3.38Z"/>
        <path class="cls-1" d="M849.03,400.79c.38,6.04.65,12.1.78,18.18.03,1.63,1.36,2.94,2.99,2.94h0c1.68,0,3.04-1.38,3.01-3.06-.13-6.17-.4-12.32-.79-18.45-.11-1.69-1.61-2.96-3.3-2.79h0c-1.61.16-2.79,1.57-2.69,3.18Z"/>
      </g>
    </g>
  </g>
  <g id="button_1" data-name="button 1">
    <g>
      <path class="cls-1" d="M497.64,30.81c-19.93-3.45-40.18-5.39-60.67-5.82-1.68-.03-3.06,1.33-3.06,3.01h0c0,1.63,1.31,2.96,2.94,2.99,20.19.42,40.14,2.33,59.77,5.73,1.6.28,3.14-.76,3.45-2.36h0c.33-1.65-.77-3.26-2.43-3.55Z"/>
      <path class="cls-1" d="M434.41,15.52h0c0,1.63,1.3,2.96,2.93,2.99,21,.47,41.76,2.51,62.17,6.11,1.61.28,3.14-.76,3.46-2.36h0c.33-1.65-.76-3.26-2.42-3.55-20.72-3.65-41.78-5.72-63.09-6.2-1.68-.04-3.06,1.32-3.06,3.01Z"/>
      <path class="cls-1" d="M436.85,6c21.83.45,43.4,2.55,64.62,6.28,1.61.28,3.14-.76,3.46-2.36h0c.33-1.65-.76-3.26-2.42-3.55C480.99,2.59,459.11.46,436.96,0c-1.68-.03-3.06,1.33-3.06,3.01h0c0,1.63,1.31,2.96,2.94,2.99Z"/>
    </g>
    <g>
      <path class="cls-1" d="M578.98,40.73c-19.79-7.74-40.03-13.9-60.64-18.48-1.64-.36-3.26.7-3.59,2.35h0c-.32,1.6.7,3.15,2.3,3.51,20.31,4.51,40.25,10.59,59.74,18.21,1.52.59,3.24-.13,3.86-1.64h0c.64-1.55-.11-3.34-1.67-3.95Z"/>
      <path class="cls-1" d="M583.33,29.01c-20.57-8.03-41.61-14.41-63.04-19.13-1.64-.36-3.26.71-3.59,2.35h0c-.32,1.6.71,3.16,2.3,3.51,21.12,4.65,41.86,10.94,62.14,18.85,1.52.59,3.24-.13,3.86-1.64h0c.64-1.55-.11-3.34-1.68-3.95Z"/>
      <g>
        <path class="cls-1" d="M530.87,38.05c-5.12-1.35-10.27-2.6-15.44-3.74-1.64-.36-3.26.7-3.58,2.35h0c-.32,1.6.71,3.16,2.3,3.51,5.08,1.12,10.14,2.36,15.18,3.68,1.56.41,3.17-.48,3.64-2.02h0c.5-1.63-.46-3.35-2.1-3.78Z"/>
        <path class="cls-1" d="M555.93,48.79h0c-.47,1.55.37,3.18,1.9,3.7,4.63,1.59,9.24,3.27,13.82,5.04,1.52.59,3.23-.13,3.85-1.64h0c.64-1.56-.11-3.35-1.68-3.95-4.65-1.8-9.33-3.5-14.04-5.12-1.61-.55-3.35.35-3.85,1.97Z"/>
      </g>
    </g>
    <g>
      <path class="cls-1" d="M724.05,118.95c-15.96-15.31-32.94-29.28-50.86-41.83-1.38-.96-3.28-.6-4.22.8h0c-.91,1.36-.56,3.18.78,4.12,17.66,12.38,34.4,26.14,50.14,41.24,1.18,1.13,3.04,1.12,4.19-.04h0c1.19-1.19,1.17-3.13-.04-4.29Z"/>
      <g>
        <path class="cls-1" d="M679.73,97.41c-4.32-3.3-8.7-6.53-13.14-9.66-1.38-.97-3.28-.6-4.22.79h0c-.91,1.36-.56,3.18.77,4.12,4.37,3.08,8.68,6.25,12.93,9.5,1.29.98,3.11.78,4.14-.47h0c1.08-1.31.86-3.26-.49-4.29Z"/>
        <path class="cls-1" d="M698.74,116.95h0c-1.02,1.25-.87,3.08.34,4.15,4.14,3.66,8.22,7.41,12.23,11.25,1.18,1.13,3.04,1.12,4.2-.04h0c1.19-1.19,1.17-3.13-.04-4.29-4.07-3.9-8.22-7.71-12.42-11.43-1.27-1.12-3.23-.96-4.3.35Z"/>
      </g>
      <g>
        <path class="cls-1" d="M671.98,106.84c-4.12-3.14-8.29-6.2-12.52-9.17-1.38-.97-3.28-.6-4.21.8h0c-.91,1.36-.56,3.18.78,4.12,4.16,2.92,8.27,5.94,12.32,9.02,1.28.98,3.11.77,4.13-.48h0c1.08-1.32.86-3.26-.49-4.29Z"/>
        <path class="cls-1" d="M691.01,126.37h0c-1.02,1.25-.87,3.08.34,4.14,3.76,3.33,7.47,6.72,11.11,10.2,1.18,1.12,3.03,1.11,4.19-.04h0c1.19-1.19,1.18-3.13-.04-4.3-3.7-3.53-7.47-6.98-11.29-10.36-1.27-1.13-3.23-.96-4.31.35Z"/>
      </g>
    </g>
    <g>
      <path class="cls-1" d="M651.55,77.65c-17.76-11.36-36.4-21.36-55.85-29.94-1.54-.68-3.34.05-3.98,1.6h0c-.62,1.51.07,3.23,1.57,3.89,19.15,8.46,37.52,18.31,55.02,29.5,1.38.88,3.2.51,4.11-.85h0c.93-1.4.54-3.29-.87-4.2Z"/>
      <g>
        <path class="cls-1" d="M603.95,65.09c-4.42-2.14-8.88-4.21-13.39-6.2-1.54-.68-3.34.05-3.98,1.61h0c-.62,1.51.08,3.23,1.57,3.89,4.44,1.96,8.83,3.99,13.18,6.1,1.45.7,3.2.14,3.95-1.28h0c.8-1.5.2-3.37-1.33-4.11Z"/>
        <path class="cls-1" d="M626.49,80.45h0c-.76,1.43-.25,3.19,1.15,4,4.56,2.65,9.08,5.37,13.53,8.2,1.38.87,3.2.5,4.1-.86h0c.93-1.4.54-3.3-.88-4.2-4.53-2.87-9.11-5.65-13.76-8.34-1.47-.85-3.35-.3-4.15,1.19Z"/>
      </g>
      <g>
        <path class="cls-1" d="M638.2,58.63h0c-.76,1.43-.25,3.19,1.15,4,5.25,3.04,10.44,6.18,15.55,9.45,1.38.88,3.2.5,4.11-.85h0c.93-1.4.54-3.3-.87-4.2-5.19-3.31-10.46-6.51-15.79-9.59-1.47-.85-3.35-.3-4.15,1.19Z"/>
        <path class="cls-1" d="M615.7,43.24c-5.16-2.52-10.37-4.95-15.64-7.27-1.54-.68-3.34.05-3.98,1.61h0c-.62,1.51.08,3.23,1.57,3.89,5.19,2.29,10.32,4.68,15.4,7.16,1.45.71,3.21.15,3.97-1.28h0c.8-1.5.2-3.36-1.32-4.11Z"/>
      </g>
    </g>
  </g>
</svg>