<?xml version="1.0" encoding="UTF-8"?>
<svg id="Layer_2" data-name="Layer 2" xmlns="http://www.w3.org/2000/svg" xmlns:xlink="http://www.w3.org/1999/xlink" viewBox="0 0 503.1 281.18">
  <defs>
    <style>
      .cls-1 {
        clip-path: url(#clippath);
      }

      .cls-2 {
        fill: none;
      }

      .cls-2, .cls-3, .cls-4, .cls-5 {
        stroke: #fff;
        stroke-miterlimit: 10;
      }

      .cls-3 {
        fill: #fff;
      }

      .cls-3, .cls-4 {
        stroke-width: 0px;
      }

      .cls-4, .cls-5 {
        fill: #000;
      }
    </style>
    <clipPath id="clippath">
      <path class="cls-2" d="M251.55.5C145.18.5,52.03,56.61.59,140.59c51.44,83.98,144.59,140.09,250.96,140.09s199.52-56.11,250.97-140.09C451.07,56.61,357.92.5,251.55.5Z"/>
    </clipPath>
  </defs>
  <g id="eye">
    <path class="cls-5" d="M251.55.5C145.18.5,52.03,56.61.59,140.59c51.44,83.98,144.59,140.09,250.96,140.09s199.52-56.11,250.97-140.09C451.07,56.61,357.92.5,251.55.5Z"/>
    <g>
      <g class="cls-1">
        <g>
          <circle class="cls-4" cx="251.55" cy="140.59" r="157.12"/>
          <path class="cls-3" d="M251.55,298.34c-86.98,0-157.75-70.76-157.75-157.75S164.57-17.16,251.55-17.16s157.75,70.77,157.75,157.75-70.76,157.75-157.75,157.75ZM251.55-15.9c-86.29,0-156.49,70.2-156.49,156.49s70.2,156.49,156.49,156.49,156.49-70.2,156.49-156.49S337.84-15.9,251.55-15.9Z"/>
        </g>
      </g>
      <path class="cls-2" d="M251.55.5C145.18.5,52.03,56.61.59,140.59c51.44,83.98,144.59,140.09,250.96,140.09s199.52-56.11,250.97-140.09C451.07,56.61,357.92.5,251.55.5Z"/>
    </g>
  </g>
</svg>